<?xml version="1.0" encoding="utf-8" ?>
<svg xmlns="http://www.w3.org/2000/svg" xmlns:xlink="http://www.w3.org/1999/xlink" width="1800" height="1244">
	<path d="M805.144 76.752C818.909 76.0657 833.646 75.9292 847.281 78.1474C881.487 83.7124 922.83 103.924 953.249 120.877C1053.86 176.953 1157.54 267.822 1223.38 362.64C1234.79 379.073 1252.37 405.926 1257.65 425.193C1258.88 429.66 1259.71 435.402 1257.31 439.574C1255.67 446.27 1197.53 490.921 1187.69 499.739C1193.54 510.522 1202.44 520.487 1209.76 530.354C1221.25 545.826 1254.22 592.982 1259.49 609.869C1268.89 606.15 1300.88 570.937 1310.37 561.381L1454.88 415.093L1494.86 374.652C1502.79 366.604 1510.56 358.096 1519.1 350.701C1522.99 347.327 1526.76 343.823 1532.13 343.451C1535.44 343.222 1538.62 343.807 1541.13 346.135C1546.59 351.224 1546.85 362.468 1545.97 369.329C1543.68 387.129 1533.37 414.475 1528.03 432.656L1487.58 570.946L1473.89 616.718C1471.51 624.677 1468.52 632.814 1466.86 640.943C1465.69 646.687 1466.55 653.299 1467.6 658.989C1469.9 671.334 1473.88 683.59 1476.96 695.784C1482.15 716.321 1486.91 736.932 1492.27 757.43C1503.3 799.621 1513.11 842.156 1523.89 884.419C1527.21 897.423 1537.9 931.626 1538.16 942.511C1538.25 946.215 1536.1 950.611 1533.47 953.174C1531.41 955.177 1528.82 955.956 1525.99 955.693C1520.51 955.182 1515.47 951.423 1511.66 947.68C1502.08 938.27 1493.93 927.176 1485.26 916.921L1437.01 860.265L1281.08 678.216C1276.36 672.812 1272.11 667.066 1267.34 661.686L1266.83 661.948C1265.65 659.935 1264.55 658.914 1262.67 657.538C1255.8 662.488 1241.65 687.416 1235.72 696.05Q1218.13 721.739 1199.31 746.538C1192.03 756.162 1184.08 765.405 1177.37 775.435C1177.03 778.723 1178.65 780.96 1180.7 783.428C1190.67 795.457 1204.52 806.229 1215.97 816.892C1237.79 837.188 1259.3 857.894 1281.42 877.849C1284.13 880.292 1297.26 889.9 1298.34 892.033C1298.46 892.276 1298.57 892.528 1298.68 892.776Q1299.17 893.075 1299.64 893.414Q1300.11 893.753 1300.55 894.131Q1300.98 894.508 1301.39 894.921Q1301.79 895.334 1302.16 895.779Q1302.53 896.224 1302.86 896.699Q1303.18 897.174 1303.47 897.674Q1303.76 898.175 1304.01 898.698Q1304.25 899.221 1304.45 899.763C1305.68 903.071 1304.82 906.585 1303.33 909.648C1299.55 917.375 1291.97 923.857 1285.73 929.629C1255.29 957.753 1219.3 977.755 1180.15 991.026C1108.14 1015.43 1002.42 1015.72 933.479 981.722C929.27 982.92 865.701 1011.7 863.232 1013.55C863.361 1022.54 950.048 1135.24 958.643 1161.01C958.18 1162.61 957.732 1164.26 957.106 1165.81C955.222 1170.46 951.209 1172.47 946.837 1174.35C927.047 1182.85 901.969 1184.88 880.617 1185.1C826.619 1185.66 777.405 1177.24 726.984 1157.6C675.201 1137.44 614.039 1104.37 581.41 1058.21C573.305 1046.75 567.737 1034.34 562.106 1021.52C550.691 1017.02 538.741 1014.02 527.25 1009.71Q491.403 996.042 457.363 978.348C353.285 924.653 265.805 838.991 194.6 747.067C177.265 724.686 157.889 702.724 149.265 675.284C140.365 646.968 148.111 612.668 161.451 587.083C172.577 565.745 186.136 547.451 200.627 528.371Q203.79 524.192 207.019 520.063Q210.247 515.934 213.54 511.856Q216.833 507.779 220.19 503.753Q223.547 499.728 226.966 495.755Q230.386 491.783 233.867 487.865Q237.349 483.947 240.891 480.085Q244.434 476.222 248.037 472.415Q251.64 468.609 255.302 464.859Q258.964 461.11 262.685 457.419Q266.405 453.727 270.184 450.095Q273.962 446.462 277.797 442.89Q281.631 439.317 285.522 435.805Q289.412 432.293 293.358 428.843Q297.303 425.393 301.302 422.005Q305.301 418.617 309.352 415.292Q313.404 411.968 317.507 408.707Q321.61 405.447 325.764 402.251Q329.919 399.056 334.122 395.926Q338.326 392.796 342.578 389.732Q346.831 386.669 351.131 383.673Q355.431 380.676 359.777 377.748Q364.124 374.82 368.516 371.961Q372.908 369.101 377.344 366.311Q381.781 363.521 386.261 360.801Q390.74 358.081 395.262 355.431Q399.784 352.782 404.347 350.204Q408.91 347.626 413.513 345.12Q418.116 342.614 422.757 340.181Q427.399 337.748 432.078 335.388Q436.758 333.028 441.474 330.742Q446.189 328.456 450.941 326.244Q455.692 324.033 460.477 321.896Q484.698 311.358 509.694 302.819C522.055 298.589 548.552 293.196 558.001 286.197C565.023 280.996 571.465 274.643 578.091 268.919L621.791 230.85L740.795 127.9C757.549 113.396 777.157 93.6489 795.037 81.3842C798.228 79.1954 801.47 77.9016 805.144 76.752ZM566.526 316.682C541.769 321.718 517.145 330.54 493.631 339.704C378.895 384.42 284.178 463.603 211.829 562.383C205.819 570.588 198.596 578.22 193.078 586.684C179.692 607.213 170.534 638.144 176.047 662.609C180.979 684.5 197.898 702.987 211.134 720.41C262.31 787.775 320.33 849.087 388.042 900.02C435.409 935.189 499.098 972.451 555.782 988.645C560.17 989.898 568.671 993.586 573.025 993.055C578.086 992.437 582.634 985.537 585.324 981.647C642.878 898.427 673.862 792.538 681.986 692.272C683.683 671.322 683.226 649.922 683.256 628.899C683.314 588.226 682.073 554.402 674.549 514.044C663.514 454.849 643.777 399.395 607.48 350.852C599.109 339.657 589.063 326.908 577.372 319.048C573.525 316.462 571.055 316.278 566.526 316.682ZM950.796 523.571C946.028 549.328 947.22 586.968 945.968 614.334C943.65 665.016 939.661 715.852 938.753 766.574C938.695 769.791 938.724 773.155 939.875 776.198L941.347 776.375L941.54 775.362L943.04 778.248L942.977 775.88C963.897 768.246 984.293 756.824 1004.4 747.134L1115.85 693.483L1174.73 665.178C1186.39 659.563 1199.62 654.388 1210.06 646.773C1207.27 644.311 1204.48 642.392 1201.18 640.675C1186.95 633.278 1172.01 626.877 1157.5 620.026L1077.21 581.942L1008.18 549.2C992.003 541.408 975.89 533.097 959.388 526.02C956.609 524.829 953.826 523.869 950.796 523.571ZM916.411 528.994C900.199 543.249 880.409 555.429 862.726 567.895L777.119 629.237C764.036 638.66 748.882 647.884 737.117 658.879C746.307 667.937 757.649 675.066 768.2 682.418L809.582 711.243C818.227 718.359 900.928 777.257 906.72 778.425C908.824 776.771 909.255 775.353 909.585 772.716C910.833 762.744 910.576 752.504 910.849 742.463Q911.453 721.689 912.456 700.931L915.66 623.725C916.809 600.328 918.5 576.982 918.976 553.553C919.115 546.697 920.29 537.225 918.123 530.721L916.411 528.994ZM810.959 105.457L692.256 208.592Q665.762 231.061 639.762 254.101C634.296 258.9 628.268 263.208 623.017 268.222C621.378 269.786 620.126 271.174 619.354 273.352C621.901 275.504 626.391 274.743 629.551 274.482C657.111 272.212 683.941 269.02 711.725 269.437L760.116 270.737Q807.371 225.4 855.18 180.646C872.558 164.176 890.675 147.986 907.031 130.51C877.211 113.747 845.066 104.889 810.959 105.457ZM1063.18 425.388C1048.06 433.91 1034.02 445.411 1019.86 455.466C1002.67 467.671 981.012 481.305 965.767 495.439C981.232 506.257 1012.57 518.953 1031.1 527.699L1164.12 590.794C1171.99 594.542 1225.94 622.004 1230.8 620.622C1231.25 614.678 1222.84 603.4 1219.68 598.241C1200.7 567.331 1180.61 538.321 1156.98 510.747C1144.33 495.986 1080 427.026 1066.15 425.376C1065.15 425.258 1064.17 425.279 1063.18 425.388ZM690.838 446.444C690.233 448.608 689.909 450.512 690.16 452.763C691.011 460.387 694.002 468.498 695.91 475.96Q700.573 494.559 704.198 513.388C709.432 540.945 711.765 569.935 713.463 597.923C714.229 610.543 713.437 624.171 715.549 636.551C728.438 629.31 740.487 619.413 752.545 610.798Q786.244 587.046 819.674 562.915L864.89 530.488C874.537 523.649 885.252 517.099 893.86 508.962L893.848 507.838L894.629 507.55C892.367 505.719 889.708 504.809 886.987 503.886C876.01 500.163 864.606 497.396 853.49 494.08L776.733 471.317L719.354 454.574C709.965 451.859 700.364 448.523 690.838 446.444ZM1499.18 411.877C1495.94 418.345 1469.27 442.387 1462.34 449.301L1365.99 546.337C1347.52 564.977 1327.5 583.423 1310.46 603.356C1306.54 607.939 1299.74 615.167 1299.16 621.182C1299.93 622.78 1299.96 623.189 1301.71 623.867C1303.12 624.418 1304.77 624.424 1306.27 624.517C1349.91 627.032 1393.77 628.141 1437.47 629.505C1439.32 628.01 1440.63 626.594 1441.48 624.331C1444.23 617.057 1445.98 609.209 1448.45 601.805C1453.02 588.117 1458.36 574.512 1462.02 560.551C1465.8 546.17 1468.5 531.74 1472.76 517.446C1478.78 497.286 1484.48 477.005 1490.67 456.902C1494.68 443.889 1500.45 429.511 1502.57 416.162C1502.73 415.171 1502.6 414.395 1502.45 413.416C1501.1 412.185 1500.99 412.104 1499.18 411.877ZM714.964 680.732C713.626 682.14 712.754 682.774 712.242 684.683C709.8 693.773 710.304 704.521 709.353 713.901C708.438 722.933 706.707 732.063 705.531 741.093C700.534 779.489 689.284 816.172 679.689 853.502C693.791 852.04 707.399 847.662 721.024 843.915C750.138 835.909 779.42 826.11 808.795 819.396C818.254 816.769 875.609 802.506 878.298 798.542C878.743 797.886 878.062 796.325 877.867 795.566C873.795 790.42 845.421 772.449 838.176 767.323Q797.024 737.913 755.515 709.01C742.053 699.573 728.9 689.45 714.964 680.732ZM1204.43 683.82C1190.21 689.306 1176.51 696.694 1162.76 703.3L1091.16 737.7L1007.19 777.967C989.448 786.452 971.09 794.65 953.855 804.113C951.722 805.284 949.688 806.332 948.514 808.503C959.77 819.579 975.476 828.492 988.482 837.484C1001.39 846.658 1028.06 867.85 1041.11 873.307Q1051.66 864.22 1061.93 854.816Q1072.21 845.412 1082.19 835.7Q1092.17 825.988 1101.85 815.976Q1111.53 805.964 1120.9 795.662Q1130.27 785.359 1139.32 774.777Q1148.37 764.194 1157.1 753.34Q1165.83 742.487 1174.22 731.372Q1182.61 720.258 1190.66 708.893C1194.96 702.936 1205.54 692.796 1206.47 685.664C1205.7 684.586 1205.73 684.26 1204.43 683.82ZM824.773 312.207C824.314 312.919 823.618 313.48 823.816 314.343C824.431 317.019 825.97 319.216 827.482 321.457C852.528 358.595 878.749 395.205 904.427 431.939C912.688 443.757 927.848 469.106 937.254 477.72C957.388 466.882 976.003 451.179 994.574 437.811C1006.11 429.539 1031.11 414.036 1039.44 404.284C1031.87 397.928 1022.96 392.834 1014.6 387.552C969.797 359.241 921.152 338.216 870.615 322.557C856.151 318.076 839.958 312.802 824.773 312.207ZM1307.23 655.404C1307.39 656.648 1307.64 657.879 1308.3 658.962C1311.32 663.94 1315.87 668.565 1319.51 673.178Q1331.98 689.223 1344.81 704.984Q1390.15 760.236 1436.39 814.735L1468.24 852.323C1474.15 859.277 1480.17 867.575 1487.22 873.328C1488.06 874.015 1487.88 873.838 1488.99 874.323C1490.3 872.05 1490.42 871.513 1489.95 868.793C1487.5 854.503 1482.57 839.719 1479.09 825.565C1471.87 796.162 1465 766.536 1457.2 737.286C1454.94 728.834 1451.84 720.592 1449.77 712.098C1445.86 696.126 1444.56 674.433 1436.52 660.329C1432.75 658.789 1428.69 658.376 1424.66 658.067C1399.13 656.114 1373.01 656.465 1347.39 655.834C1334.83 655.525 1319.49 653.295 1307.23 655.404ZM935.733 145.163C914.005 161.782 892.594 185.323 872.466 204.341L828.516 245.851C818.671 255.167 807.987 264.449 799.431 274.966C810.04 279.338 822.436 280.848 833.679 283.223Q854.144 287.366 874.215 293.122C879.479 294.64 884.761 296.357 890.11 297.537C906.168 286.531 920.873 270.869 935.523 257.928L985.651 213.525C993.001 206.894 1002.41 199.809 1008.15 191.793C997.253 180.218 950.835 150.918 935.733 145.163ZM887.911 828.29C874.72 830.828 861.671 834.888 848.741 838.515L788.58 855.402L733.984 870.334C724.309 872.985 713.97 875.249 704.578 878.735C702.207 879.615 700.758 880.599 699.333 882.675C699.364 883.257 699.263 883.862 699.427 884.421C700.315 887.438 743.368 935.194 749.433 942.414C763.278 958.159 776.546 975.893 792.175 989.829C799.376 981.73 891.26 833.638 891.793 831.424L891.35 829.468C890.153 828.884 889.262 828.381 887.911 828.29ZM785.259 314.606C770.996 327.356 758.655 344.421 746.092 358.964C731.734 375.584 709.517 398.368 698.192 416.206C712.844 424.483 730.971 427.821 747.059 432.479Q775.625 441.034 804.292 449.245C813.148 451.784 822.874 453.598 831.226 457.443C841.184 460.181 892.231 476.206 896.768 474.864C896.845 472.713 895.831 471.272 894.735 469.509C875.761 438.977 853.463 410.062 833.095 380.422L806.872 342.288C801.329 334.16 796.035 324.934 789.339 317.758C788.13 316.462 786.779 315.499 785.259 314.606ZM1032.15 211.659C1021.86 219.195 929.615 300.466 926.622 307.185L926.625 309.41C937.897 317.217 953.218 322.107 965.82 327.888C978.973 333.922 991.539 340.704 1004.26 347.577L1013.23 351.864L1072.11 300.28C1082.86 290.881 1094.33 281.899 1104.24 271.614C1096.09 262.409 1043.39 212.431 1033.74 211.708C1033.21 211.669 1032.68 211.665 1032.15 211.659ZM926.91 831.986C918.819 842.983 830.085 983.831 829.654 988.543L830.476 989.942C840.626 992.075 882.302 973.062 893.439 967.955C928.967 952.725 962.49 931.829 994.17 909.83C1000.45 905.471 1009.46 900.506 1013.78 894.18C1013.88 893.232 1014.22 892.682 1013.58 891.912C1009.12 886.492 933.398 833.445 926.91 831.986ZM604.475 1032.26L602.428 1033.62C602.112 1039.64 608.894 1046.32 612.823 1050.68C655.154 1097.63 736.992 1138.85 799.543 1148.06L800.684 1146.45C798.851 1138.3 745.16 1052.02 737.011 1039.83C704.282 1040.92 672.798 1040.43 640.187 1037.43C628.121 1036.32 616.603 1032.67 604.475 1032.26ZM825.901 1023.44C816.371 1025.71 807.018 1028.83 797.42 1030.75C788.55 1032.53 779.152 1032.82 770.546 1035.62C779.817 1056.9 794.03 1077.41 806.047 1097.31C815.899 1113.63 825.72 1132.03 836.736 1147.46C838.718 1150.23 840.718 1153.34 843.94 1154.77C849.864 1157.39 858.226 1157.05 864.647 1157.16C876.639 1157.2 907.949 1157.9 917.595 1151.22C917.97 1148.22 915.131 1144.15 913.576 1141.58C907.388 1131.35 900.037 1121.75 893.236 1111.92C885.171 1100.26 877.462 1088.32 869.485 1076.6C858.485 1060.43 847.464 1041.7 835.457 1026.52C834.176 1024.9 832.325 1023.38 830.185 1023.22C828.774 1023.12 827.305 1023.29 825.901 1023.44ZM1124.02 293.435Q1099.03 315.783 1073.67 337.707C1064.96 345.277 1055.42 352.579 1047.39 360.864C1045.2 363.132 1042.43 365.925 1042.02 369.094C1050.71 376.694 1060.47 383.255 1069.76 390.128Q1087.97 403.604 1105.62 417.809C1107.44 419.086 1109.23 420.433 1111.13 421.587C1122.85 412.32 1177.83 366.476 1183.05 358.767C1181.63 355.831 1180.16 352.903 1178.23 350.263C1172.17 341.949 1134.48 296.68 1128.34 294.148C1126.95 293.574 1125.5 293.504 1124.02 293.435ZM666.204 892.734C661.172 897.797 652.31 922.521 648.396 930.671C641.056 945.954 632.703 960.92 623.981 975.459C619.052 983.675 612.81 991.995 608.903 1000.71C629.014 1010.05 685.111 1011.82 707.74 1011.18C726.31 1010.5 745.209 1010.08 763.344 1005.69C757.203 994.865 673.019 895.96 666.204 892.734ZM1155.64 802.603C1145.26 809.838 1125.41 832.208 1118.03 842.965C1128.94 852.102 1219.24 938.181 1224.37 937.984C1225.87 937.927 1227.19 937.346 1228.55 936.761C1237.1 931.201 1263.49 914.846 1266.3 905.719C1265.79 903.358 1265.48 902.728 1263.81 900.992C1260.39 897.439 1256.17 894.266 1252.52 890.891L1223.69 864.038L1179.93 823.054C1173.11 816.747 1166.05 808.985 1158.26 803.973C1157.43 803.439 1156.55 803 1155.64 802.603ZM1096.11 863.887C1086.53 870.868 1055.87 897.685 1049.06 906.33C1063.01 922.837 1082.01 936.361 1098.56 950.234C1106.48 956.872 1114.35 964.816 1122.97 970.446C1125.16 971.874 1127.3 972.775 1129.93 972.985C1134.35 973.339 1139.56 971.854 1143.94 971.01C1158.5 967.372 1178.29 964.096 1190.71 955.463C1191.37 954.332 1191.74 954.239 1191.47 952.86C1191.02 950.546 1189.09 948.408 1187.49 946.746C1168.52 926.966 1146.89 908.687 1126.69 890.103C1118.46 882.53 1108.22 870.753 1098.99 865.13C1098.05 864.559 1097.15 864.233 1096.11 863.887ZM677.003 300.165C667.09 300.555 617.571 303.457 613.032 307.673C612.865 307.828 612.748 308.03 612.606 308.209C614.471 317.205 630.438 331.908 636.146 339.767C643.01 349.217 649.173 359.659 654.966 369.793C660.417 379.326 664.368 392.572 672.66 399.685L680.862 390.297C690.91 378.671 751.476 310.643 754.351 302.728C748.185 297.587 687.082 299.404 677.003 300.165ZM1199.36 383.891C1184.17 399.651 1165.91 413.064 1149.45 427.53C1144.31 432.044 1138.63 436.495 1134.11 441.627C1143.49 453.834 1154.9 464.684 1165.71 475.627L1167.71 476.986C1171.29 475.833 1223.34 433.441 1225.94 428.798C1226 419.907 1209.55 392.396 1203.19 386.286C1201.94 385.085 1201.01 384.403 1199.36 383.891ZM1020.83 927.319C1012.56 932.803 973.177 957.197 969.682 962.893C976.273 970.313 1021.29 976.55 1032.5 977.474C1043.86 978.22 1072.65 981.964 1082.3 977.846L1082.96 976.941C1079.5 971.149 1031.25 929.428 1025.28 927.578C1023.89 927.147 1022.27 927.242 1020.83 927.319Z"/>
	<path d="M463.78 487.419C463.98 487.391 464.179 487.356 464.38 487.335C488.589 484.759 512.2 491.545 530.845 507.212C548.246 521.835 559.053 542.095 560.875 564.834Q560.95 565.827 561.001 566.822Q561.052 567.816 561.078 568.812Q561.105 569.807 561.106 570.803Q561.108 571.799 561.085 572.795Q561.063 573.79 561.015 574.785Q560.968 575.78 560.896 576.773Q560.824 577.766 560.728 578.758Q560.632 579.749 560.511 580.737Q560.39 581.726 560.245 582.711Q560.1 583.696 559.931 584.678Q559.762 585.659 559.568 586.636Q559.375 587.613 559.157 588.585Q558.94 589.557 558.699 590.523Q558.457 591.489 558.192 592.449Q557.927 593.409 557.639 594.362Q557.35 595.315 557.038 596.261Q556.726 597.206 556.39 598.144Q556.055 599.082 555.697 600.011Q555.339 600.94 554.958 601.86Q554.576 602.78 554.173 603.69Q553.769 604.601 553.343 605.501Q552.917 606.401 552.469 607.29Q552.021 608.18 551.551 609.058Q551.081 609.936 550.59 610.802Q550.099 611.668 549.586 612.522Q549.074 613.376 548.54 614.217Q548.007 615.057 547.453 615.885Q546.899 616.712 546.325 617.526Q545.75 618.339 545.156 619.139Q544.562 619.938 543.949 620.722Q543.335 621.506 542.702 622.275Q542.07 623.044 541.418 623.797C527.381 640.088 504.557 655.045 482.739 656.708C454.47 657.108 434.98 657.303 411.642 637.724Q410.86 637.076 410.095 636.409Q409.33 635.741 408.582 635.055Q407.833 634.369 407.102 633.664Q406.371 632.96 405.658 632.237Q404.944 631.515 404.249 630.775Q403.554 630.034 402.878 629.277Q402.202 628.52 401.544 627.746Q400.887 626.972 400.249 626.182Q399.611 625.392 398.993 624.586Q398.375 623.781 397.778 622.96Q397.18 622.139 396.603 621.304Q396.026 620.468 395.47 619.619Q394.914 618.769 394.379 617.906Q393.844 617.043 393.331 616.167Q392.818 615.29 392.327 614.401Q391.836 613.513 391.367 612.612Q390.898 611.711 390.452 610.799Q390.006 609.887 389.582 608.964Q389.159 608.041 388.759 607.108Q388.358 606.175 387.982 605.232Q387.605 604.289 387.251 603.337Q386.898 602.385 386.569 601.424Q386.239 600.464 385.934 599.495Q385.629 598.527 385.347 597.551Q385.066 596.575 384.809 595.593Q384.553 594.61 384.32 593.622Q384.088 592.633 383.881 591.639Q383.673 590.645 383.49 589.646Q383.308 588.647 383.15 587.644Q382.992 586.641 382.859 585.634Q382.727 584.628 382.619 583.618Q382.511 582.608 382.429 581.596Q382.344 580.53 382.285 579.463Q382.227 578.395 382.195 577.326Q382.162 576.258 382.157 575.188Q382.151 574.119 382.172 573.05Q382.193 571.981 382.24 570.913Q382.287 569.845 382.361 568.778Q382.435 567.712 382.535 566.647Q382.635 565.583 382.761 564.521Q382.888 563.459 383.04 562.401Q383.193 561.343 383.372 560.289Q383.551 559.235 383.755 558.185Q383.96 557.136 384.191 556.092Q384.422 555.048 384.679 554.01Q384.935 552.972 385.217 551.941Q385.5 550.91 385.807 549.886Q386.115 548.862 386.448 547.846Q386.781 546.83 387.139 545.822Q387.497 544.815 387.88 543.817Q388.263 542.818 388.67 541.83Q389.078 540.841 389.509 539.863Q389.941 538.885 390.397 537.918Q390.853 536.951 391.333 535.996Q391.812 535.04 392.316 534.097Q392.819 533.154 393.345 532.223Q393.872 531.293 394.421 530.375Q394.97 529.458 395.542 528.555Q396.114 527.652 396.708 526.763Q397.302 525.874 397.918 525Q398.534 524.126 399.171 523.268Q399.809 522.41 400.467 521.567Q401.126 520.725 401.805 519.899Q402.484 519.074 403.183 518.265C418.2 500.819 440.881 489.179 463.78 487.419ZM450.569 531.1C442.901 533.411 436.454 536.57 432.509 543.919C429.547 549.435 429.199 555.98 431.131 561.893Q431.348 562.538 431.597 563.172Q431.846 563.806 432.125 564.426Q432.405 565.047 432.715 565.653Q433.025 566.259 433.364 566.849Q433.704 567.439 434.072 568.012Q434.44 568.585 434.836 569.139Q435.232 569.692 435.654 570.226Q436.077 570.76 436.526 571.272Q436.974 571.784 437.447 572.273Q437.921 572.762 438.417 573.228Q438.914 573.693 439.433 574.133Q439.952 574.574 440.493 574.988Q441.033 575.402 441.593 575.789Q442.153 576.176 442.731 576.535Q443.309 576.894 443.905 577.224Q444.5 577.554 445.111 577.854C450.181 580.358 456.029 581.7 461.656 580.794C469.904 577.551 477.259 573.892 480.922 565.295C483.405 559.469 483.128 552.7 480.618 546.937C477.614 540.039 471.599 535.081 464.628 532.512C460.058 530.828 455.384 530.797 450.569 531.1Z"/>
</svg>
