<svg id="svg" xmlns="http://www.w3.org/2000/svg" xmlns:xlink="http://www.w3.org/1999/xlink" width="400" height="400" viewBox="0, 0, 400,400"><g id="svgg"><path id="path0" d="M177.846 79.280 C 176.579 79.788,173.236 82.442,168.672 86.562 C 166.449 88.569,160.880 93.461,156.296 97.433 C 146.972 105.514,139.922 111.633,130.580 119.753 C 123.389 126.003,123.116 126.171,117.584 127.773 C 90.238 135.693,62.661 155.250,44.201 179.815 C 28.194 201.117,28.181 209.025,44.120 228.965 C 68.928 260.000,92.919 278.230,121.481 287.748 L 125.000 288.921 126.437 292.024 C 136.688 314.169,183.458 331.858,209.152 323.307 C 214.967 321.372,214.934 321.291,199.436 298.889 C 192.492 288.852,191.629 287.466,192.079 287.076 C 192.369 286.825,199.275 283.637,205.250 280.995 L 207.352 280.066 210.872 281.515 C 235.030 291.462,271.369 284.380,287.693 266.542 C 290.782 263.168,290.708 262.102,287.171 259.003 C 284.574 256.728,270.763 244.044,265.712 239.294 C 264.067 237.747,262.424 236.025,262.061 235.467 L 261.402 234.453 266.758 227.319 C 272.237 220.021,273.596 218.096,277.153 212.590 C 278.272 210.857,279.554 209.108,280.001 208.703 L 280.814 207.967 282.352 209.805 C 283.197 210.816,291.379 220.398,300.535 231.099 C 323.252 257.652,327.030 262.080,331.358 267.222 C 337.751 274.819,340.052 276.043,341.476 272.606 C 342.038 271.249,342.912 275.053,332.829 234.957 C 325.109 204.257,325.376 206.024,327.423 199.229 C 328.247 196.496,331.342 186.009,334.301 175.926 C 337.260 165.843,340.422 155.205,341.328 152.286 C 344.173 143.121,344.299 139.263,341.781 138.373 C 339.405 137.533,342.148 134.961,301.135 176.481 C 290.673 187.074,281.612 196.111,281.000 196.563 L 279.887 197.384 279.078 195.637 C 278.632 194.675,277.317 192.351,276.154 190.472 C 274.234 187.368,272.674 185.129,266.181 176.165 C 263.581 172.575,263.447 173.207,267.500 169.969 C 280.688 159.432,280.969 158.978,278.071 152.882 C 264.739 124.836,218.733 86.477,190.185 79.607 C 186.987 78.837,179.448 78.637,177.846 79.280 M187.037 85.723 C 191.831 86.450,199.706 89.219,201.227 90.714 C 201.523 91.004,197.884 94.557,178.704 112.704 L 169.074 121.815 159.630 121.827 C 154.182 121.833,147.678 122.074,144.259 122.396 C 141.000 122.703,138.208 122.956,138.056 122.959 C 137.097 122.974,138.240 121.572,141.389 118.867 C 147.569 113.560,157.514 104.941,169.074 94.873 C 181.758 83.827,180.100 84.671,187.037 85.723 M211.676 95.973 C 217.983 99.589,223.704 103.697,223.704 104.610 C 223.704 105.046,209.315 118.173,201.214 125.127 C 198.609 127.363,197.873 127.814,197.078 127.660 C 196.546 127.558,193.361 126.801,190.000 125.979 C 186.639 125.156,182.598 124.211,181.021 123.877 C 179.444 123.544,178.074 123.142,177.976 122.985 C 177.638 122.437,207.196 94.074,208.105 94.074 C 208.248 94.074,209.855 94.928,211.676 95.973 M231.032 109.524 C 233.838 111.297,245.185 121.461,245.185 122.202 C 245.185 122.357,240.678 126.419,235.170 131.228 L 225.155 139.971 218.550 136.745 C 214.918 134.970,210.591 132.890,208.936 132.121 C 207.280 131.352,205.926 130.492,205.926 130.209 C 205.926 129.255,228.474 108.889,229.530 108.889 C 229.803 108.889,230.479 109.175,231.032 109.524 M253.278 129.722 C 255.877 132.414,261.378 138.933,262.514 140.666 C 263.110 141.576,263.091 141.616,261.282 143.267 C 258.622 145.693,248.874 154.019,247.731 154.842 L 246.757 155.541 243.101 152.669 C 241.090 151.090,237.653 148.474,235.463 146.857 C 233.273 145.239,231.481 143.762,231.481 143.575 C 231.481 142.889,249.471 127.039,250.250 127.038 C 250.490 127.037,251.853 128.245,253.278 129.722 M166.574 128.734 C 167.032 128.827,167.407 129.056,167.407 129.242 C 167.407 130.227,150.157 150.185,149.305 150.185 C 148.975 150.185,147.699 148.211,146.136 145.283 C 143.628 140.586,142.267 138.559,138.158 133.405 C 136.168 130.908,135.915 130.168,136.944 129.849 C 140.416 128.775,162.656 127.937,166.574 128.734 M188.889 132.231 C 201.537 135.377,223.873 145.569,229.927 150.958 L 230.926 151.848 229.630 152.961 C 228.917 153.573,226.833 155.109,225.000 156.374 C 223.167 157.639,219.756 160.097,217.421 161.837 C 212.914 165.195,208.956 167.777,208.317 167.778 C 207.850 167.778,205.885 165.242,203.386 161.413 C 202.372 159.860,198.166 153.783,194.039 147.906 C 184.915 134.917,182.908 131.871,183.181 131.429 C 183.423 131.037,184.955 131.253,188.889 132.231 M175.572 132.685 C 176.004 133.144,178.457 136.602,181.022 140.370 C 183.587 144.139,187.295 149.472,189.261 152.222 C 193.444 158.072,198.825 166.069,199.151 166.919 C 199.466 167.738,198.164 167.464,189.661 164.923 C 179.929 162.014,169.942 159.105,163.855 157.407 C 156.617 155.387,155.033 154.680,155.555 153.705 C 156.045 152.789,160.492 147.433,163.733 143.856 C 165.041 142.411,167.915 139.120,170.120 136.541 C 174.485 131.434,174.429 131.474,175.572 132.685 M129.571 133.692 C 137.530 139.984,146.046 157.407,149.580 174.630 C 151.808 185.485,152.554 210.451,150.986 221.667 C 147.774 244.638,141.559 262.463,131.258 278.247 C 128.158 282.997,128.215 282.976,122.668 281.334 C 109.394 277.402,94.068 268.549,79.074 256.152 C 64.646 244.223,42.343 218.443,39.631 210.561 C 37.766 205.138,39.602 196.494,43.763 191.111 C 44.471 190.194,46.773 187.194,48.877 184.444 C 68.405 158.929,94.128 140.842,121.604 133.307 C 126.759 131.894,127.330 131.921,129.571 133.692 M268.454 149.040 C 270.052 151.265,272.218 155.583,272.220 156.548 C 272.222 157.460,269.030 160.469,263.221 165.029 L 259.590 167.879 258.455 166.810 C 256.598 165.061,253.250 161.527,252.679 160.713 C 251.995 159.735,252.069 159.653,258.704 154.066 C 261.556 151.664,264.451 149.113,265.137 148.397 C 266.606 146.865,266.939 146.930,268.454 149.040 M333.768 154.793 C 333.702 155.453,332.841 158.524,331.856 161.616 C 329.564 168.813,327.393 176.358,325.927 182.222 C 324.619 187.456,320.476 200.463,319.854 201.290 C 319.316 202.005,289.792 201.026,289.034 200.269 C 288.543 199.778,289.295 198.255,291.056 196.174 C 293.998 192.699,333.112 153.381,333.519 153.492 C 333.722 153.547,333.835 154.132,333.768 154.793 M239.444 157.889 C 250.194 166.215,267.768 187.315,272.894 198.051 C 274.032 200.436,273.019 200.136,262.222 194.897 C 258.250 192.970,251.583 189.766,247.407 187.777 C 243.231 185.789,237.481 183.045,234.630 181.681 C 231.778 180.317,227.694 178.440,225.556 177.511 C 220.739 175.419,215.080 172.463,214.909 171.950 C 214.744 171.453,222.979 165.375,233.467 158.250 C 236.722 156.040,237.033 156.021,239.444 157.889 M160.893 163.119 C 164.578 164.224,173.343 166.820,180.370 168.889 C 198.302 174.168,198.333 174.178,198.333 174.809 C 198.333 175.450,159.372 203.570,159.000 203.197 C 158.937 203.134,158.722 199.815,158.523 195.822 C 157.929 183.934,157.002 177.266,154.607 167.676 C 153.234 162.175,153.097 161.111,153.764 161.111 C 154.000 161.111,157.209 162.015,160.893 163.119 M100.657 170.565 C 89.214 172.843,82.177 185.012,86.082 195.770 C 90.487 207.907,106.208 211.851,117.019 203.532 C 133.419 190.913,121.283 166.461,100.657 170.565 M218.519 181.204 C 231.365 187.384,250.252 196.363,255.370 198.722 C 264.465 202.915,268.333 204.954,268.333 205.556 C 268.333 206.203,267.722 206.512,242.593 218.556 C 232.306 223.486,221.623 228.650,218.854 230.030 C 212.825 233.035,209.292 234.508,208.817 234.215 C 208.428 233.974,208.569 229.786,209.656 209.332 C 210.049 201.937,210.372 193.937,210.374 191.554 C 210.377 187.243,210.959 179.064,211.302 178.509 C 211.605 178.020,212.928 178.514,218.519 181.204 M204.183 180.648 C 204.290 181.208,204.228 184.833,204.045 188.704 C 203.651 197.037,202.706 219.207,202.389 227.593 C 202.157 233.717,202.020 234.815,201.492 234.815 C 201.003 234.815,193.730 229.938,187.233 225.254 C 183.968 222.900,177.880 218.571,173.704 215.634 C 166.353 210.465,164.074 208.682,164.074 208.103 C 164.074 207.950,165.782 206.594,167.870 205.088 C 176.368 198.962,193.697 186.666,196.296 184.919 C 197.824 183.892,200.062 182.282,201.268 181.341 C 203.840 179.336,203.927 179.315,204.183 180.648 M104.727 180.989 C 108.298 183.650,107.814 188.445,103.783 190.333 C 99.733 192.230,94.868 188.413,95.697 183.989 C 96.339 180.569,101.751 178.770,104.727 180.989 M315.692 208.154 C 317.498 208.335,319.019 208.532,319.071 208.593 C 319.739 209.376,320.521 211.876,321.267 215.614 C 321.769 218.128,322.749 222.185,323.445 224.630 C 325.704 232.564,331.270 255.520,331.000 255.790 C 330.230 256.560,290.741 209.572,290.741 207.885 C 290.741 207.249,308.573 207.441,315.692 208.154 M173.870 223.611 C 181.872 229.264,189.942 234.951,191.803 236.249 C 196.598 239.594,196.782 239.427,184.815 242.601 C 175.607 245.044,169.190 246.814,161.667 248.985 C 152.609 251.599,150.915 251.874,151.253 250.679 C 154.692 238.499,157.088 226.612,157.757 218.404 C 158.117 213.988,158.269 213.333,158.941 213.333 C 159.149 213.333,165.867 217.958,173.870 223.611 M267.997 214.675 C 267.618 215.661,259.133 226.838,254.806 232.051 C 248.881 239.187,240.670 247.679,233.587 253.995 L 231.433 255.916 230.048 255.210 C 229.287 254.821,226.756 253.111,224.424 251.409 C 222.093 249.708,218.769 247.388,217.037 246.254 C 213.032 243.632,210.743 241.704,211.053 241.216 C 211.361 240.731,215.956 238.435,229.259 232.116 C 235.065 229.359,246.054 224.097,253.680 220.424 C 266.824 214.092,268.475 213.429,267.997 214.675 M259.682 242.500 C 267.869 250.026,280.972 262.377,281.211 262.794 C 281.757 263.749,275.528 269.039,272.481 270.208 C 271.584 270.552,263.367 263.427,251.195 251.750 L 248.502 249.166 249.506 247.824 C 251.096 245.699,256.380 240.370,256.896 240.370 C 257.154 240.370,258.408 241.329,259.682 242.500 M197.915 246.737 C 197.871 247.316,184.988 268.174,178.799 277.684 L 176.089 281.850 173.629 279.351 C 172.276 277.976,170.114 275.584,168.825 274.035 C 167.536 272.486,164.725 269.236,162.578 266.813 C 155.886 259.259,155.352 258.554,155.794 257.848 C 156.219 257.168,156.317 257.138,176.852 251.455 C 184.389 249.369,191.889 247.281,193.519 246.815 C 196.899 245.848,197.984 245.829,197.915 246.737 M215.603 253.041 C 224.290 259.041,225.512 260.078,224.965 260.981 C 224.410 261.897,214.164 268.724,208.591 271.892 C 198.246 277.771,184.444 283.259,184.444 281.493 C 184.444 280.716,192.382 267.830,204.594 248.780 L 205.970 246.633 207.337 247.454 C 208.089 247.906,211.808 250.420,215.603 253.041 M247.698 257.143 C 249.473 258.830,253.890 262.934,257.512 266.263 C 264.127 272.342,265.061 273.377,264.599 274.123 C 263.807 275.405,252.623 278.515,250.617 278.012 C 250.076 277.876,248.507 276.806,247.131 275.633 C 245.755 274.461,242.875 272.068,240.730 270.316 C 236.396 266.775,233.333 263.908,233.333 263.393 C 233.333 262.518,242.807 254.100,243.809 254.084 C 244.173 254.079,245.923 255.455,247.698 257.143 M153.601 266.204 C 162.128 275.915,169.259 284.555,169.259 285.176 C 169.259 286.829,146.977 286.994,139.392 285.398 C 134.807 284.433,134.893 284.629,137.354 280.778 C 139.805 276.942,143.607 269.775,145.333 265.739 C 147.194 261.387,147.725 260.370,148.137 260.370 C 148.325 260.370,150.783 262.995,153.601 266.204 M232.894 271.949 C 238.860 276.880,240.719 278.803,239.999 279.299 C 237.908 280.736,215.556 277.608,215.556 275.878 C 215.556 275.437,221.560 271.202,225.882 268.593 C 227.534 267.597,227.756 267.703,232.894 271.949 M185.768 290.278 C 187.602 292.384,203.704 316.734,203.704 317.400 C 203.704 318.441,200.592 318.947,194.150 318.954 C 187.025 318.962,187.305 319.107,183.899 313.633 C 174.927 299.211,171.081 292.499,171.532 292.048 C 171.654 291.927,173.567 291.505,175.784 291.112 C 178.001 290.719,180.565 290.152,181.481 289.853 C 183.943 289.049,184.770 289.131,185.768 290.278 M139.630 292.032 C 143.806 292.758,153.913 293.292,159.444 293.079 L 163.889 292.907 168.571 300.620 C 178.240 316.550,178.554 317.202,176.389 316.836 C 163.437 314.651,147.318 306.335,137.887 296.974 C 132.350 291.478,132.587 290.806,139.630 292.032 " stroke="none" fill="#000000" fill-rule="evenodd"></path></g></svg>